<svg xmlns="http://www.w3.org/2000/svg" version="1.1" xmlns:xlink="http://www.w3.org/1999/xlink" xmlns:svgjs="http://svgjs.dev/svgjs" width="1500" height="1500" viewBox="0 0 1500 1500"><rect width="1500" height="1500" fill="#0f172a"></rect><g transform="matrix(0.6666666666666666,0,0,0.6666666666666666,249.39393939393938,438.5856950067477)"><svg viewBox="0 0 396 247" data-background-color="#0f172a" preserveAspectRatio="xMidYMid meet" height="935" width="1500" xmlns="http://www.w3.org/2000/svg" xmlns:xlink="http://www.w3.org/1999/xlink"><g id="tight-bounds" transform="matrix(1,0,0,1,0.2400000000000091,-0.09999999999999432)"><svg viewBox="0 0 395.52 247.2" height="247.2" width="395.52"><g><svg></svg></g><g><svg viewBox="0 0 395.52 247.2" height="247.2" width="395.52"><g transform="matrix(1,0,0,1,161.9794725884802,47.215199999999996)"><svg viewBox="0 0 71.56105482303956 152.7696" height="152.7696" width="71.56105482303956"><g><svg viewBox="0 0 71.56105482303956 152.7696" height="152.7696" width="71.56105482303956"><g><svg viewBox="0 0 71.56105482303956 152.7696" height="152.7696" width="71.56105482303956"><g><svg viewBox="0 0 71.56105482303956 152.7696" height="152.7696" width="71.56105482303956"><g id="textblocktransform"><svg viewBox="0 0 71.56105482303956 152.7696" height="152.7696" width="71.56105482303956" id="textblock"><g><svg viewBox="0 0 71.56105482303956 152.7696" height="152.7696" width="71.56105482303956"><g transform="matrix(1,0,0,1,0,0)"><svg width="71.56105482303956" viewBox="1.2199999999999998 -34.86 16.48 35.18" height="152.7696" data-palette-color="#f6e9d7"><path d="M9.52 0.32L9.52 0.32Q5.1 0.32 3.27-1.14 1.44-2.59 1.29-5.93L1.29-5.93Q1.15-9.3 1.29-12.7L1.29-12.7 4.59-12.7Q4.49-10.99 4.49-9.02 4.49-7.06 4.59-5.37L4.59-5.37Q4.71-3.96 5.81-3.28 6.91-2.61 9.52-2.61L9.52-2.61Q12.06-2.61 13.18-3.28 14.31-3.96 14.31-5.37L14.31-5.37 14.31-34.86 17.7-34.86 17.7-5.93Q17.7-2.59 15.83-1.14 13.96 0.32 9.52 0.32Z" opacity="1" transform="matrix(1,0,0,1,0,0)" fill="#f6e9d7" class="wordmark-text-0" data-fill-palette-color="primary" id="text-0"></path></svg></g></svg></g></svg></g></svg></g></svg></g></svg></g></svg></g><path d="M344.281 41.215L344.281 0 97.081 0 97.081 247.2 344.281 247.2 344.281 205.985 330.504 205.985 330.504 233.423 110.858 233.423 110.858 13.777 330.504 13.777 330.504 41.215Z" fill="#f6e9d7" stroke="transparent" data-fill-palette-color="tertiary"></path></svg></g><defs></defs></svg><rect width="395.52" height="247.2" fill="none" stroke="none" visibility="hidden"></rect></g></svg></g></svg>